<svg width="690" height="252" viewBox="0 0 690 252" fill="none" xmlns="http://www.w3.org/2000/svg">
<path d="M300.994 234.477C300.994 236.667 300.174 238.357 298.544 239.547C296.914 240.737 294.624 241.327 291.664 241.327C288.544 241.327 286.104 240.837 284.364 239.847V236.537C285.494 237.107 286.714 237.557 288.004 237.887C289.304 238.217 290.554 238.377 291.754 238.377C293.614 238.377 295.044 238.077 296.054 237.487C297.054 236.897 297.554 235.987 297.554 234.767C297.554 233.847 297.154 233.067 296.364 232.417C295.574 231.767 294.014 230.997 291.714 230.107C289.524 229.287 287.964 228.577 287.044 227.967C286.124 227.357 285.434 226.667 284.984 225.897C284.534 225.127 284.304 224.197 284.304 223.127C284.304 221.207 285.084 219.697 286.644 218.587C288.204 217.477 290.344 216.917 293.064 216.917C295.604 216.917 298.074 217.437 300.494 218.467L299.224 221.367C296.864 220.397 294.724 219.907 292.804 219.907C291.114 219.907 289.844 220.177 288.984 220.697C288.124 221.227 287.694 221.957 287.694 222.887C287.694 223.517 287.854 224.057 288.174 224.497C288.494 224.937 289.014 225.367 289.734 225.767C290.454 226.167 291.824 226.747 293.854 227.507C296.644 228.527 298.534 229.547 299.514 230.577C300.504 231.627 300.994 232.917 300.994 234.477Z" fill="#1A2441"/>
<path d="M306.054 210.977C306.054 210.157 306.254 209.567 306.654 209.187C307.054 208.807 307.554 208.617 308.154 208.617C308.724 208.617 309.224 208.807 309.634 209.197C310.054 209.587 310.254 210.177 310.254 210.977C310.254 211.777 310.044 212.377 309.634 212.767C309.214 213.157 308.724 213.357 308.154 213.357C307.554 213.357 307.054 213.157 306.654 212.767C306.254 212.377 306.054 211.777 306.054 210.977ZM309.924 240.907H306.354V217.357H309.924V240.907Z" fill="#1A2441"/>
<path d="M347.064 240.907V225.587C347.064 223.707 346.664 222.307 345.864 221.367C345.064 220.427 343.814 219.957 342.124 219.957C339.904 219.957 338.264 220.597 337.204 221.867C336.144 223.147 335.614 225.107 335.614 227.757V240.907H332.044V225.587C332.044 223.707 331.644 222.307 330.844 221.367C330.044 220.427 328.784 219.957 327.084 219.957C324.854 219.957 323.214 220.627 322.174 221.967C321.134 223.307 320.614 225.497 320.614 228.547V240.897H317.044V217.347H319.944L320.524 220.567H320.694C321.364 219.417 322.314 218.527 323.544 217.877C324.774 217.227 326.144 216.907 327.654 216.907C331.334 216.907 333.744 218.237 334.874 220.907H335.044C335.744 219.677 336.764 218.697 338.094 217.987C339.424 217.267 340.944 216.917 342.644 216.917C345.304 216.917 347.304 217.597 348.624 218.967C349.954 220.337 350.614 222.527 350.614 225.527V240.887H347.064V240.907Z" fill="#1A2441"/>
<path d="M368.494 241.337C366.964 241.337 365.564 241.057 364.294 240.487C363.024 239.917 361.964 239.047 361.104 237.877H360.844C361.014 239.257 361.104 240.557 361.104 241.787V251.477H357.534V217.357H360.434L360.924 220.577H361.094C362.014 219.287 363.074 218.357 364.294 217.787C365.514 217.217 366.904 216.927 368.484 216.927C371.604 216.927 374.014 217.997 375.714 220.127C377.414 222.257 378.264 225.257 378.264 229.107C378.264 232.977 377.404 235.977 375.674 238.117C373.954 240.267 371.554 241.337 368.494 241.337ZM367.974 219.957C365.564 219.957 363.824 220.627 362.754 221.957C361.684 223.287 361.124 225.407 361.104 228.317V229.107C361.104 232.417 361.654 234.787 362.754 236.207C363.854 237.637 365.624 238.347 368.064 238.347C370.094 238.347 371.694 237.527 372.844 235.877C373.994 234.227 374.574 231.957 374.574 229.067C374.574 226.127 373.994 223.877 372.844 222.307C371.694 220.737 370.064 219.957 367.974 219.957Z" fill="#1A2441"/>
<path d="M387.624 240.907H384.054V207.477H387.624V240.907Z" fill="#1A2441"/>
<path d="M391.004 217.357H394.824L399.984 230.787C401.114 233.857 401.814 236.067 402.094 237.427H402.264C402.454 236.697 402.844 235.447 403.434 233.677C404.024 231.907 405.974 226.467 409.264 217.357H413.084L402.964 244.167C401.964 246.817 400.794 248.697 399.454 249.807C398.114 250.917 396.474 251.477 394.524 251.477C393.434 251.477 392.364 251.357 391.304 251.107V248.247C392.094 248.417 392.974 248.507 393.944 248.507C396.394 248.507 398.144 247.127 399.184 244.387L400.494 241.037L391.004 217.357Z" fill="#1A2441"/>
<path d="M446.744 217.357V219.617L442.384 220.137C442.784 220.637 443.144 221.297 443.454 222.107C443.764 222.917 443.924 223.827 443.924 224.847C443.924 227.157 443.134 228.997 441.564 230.367C439.984 231.747 437.824 232.427 435.074 232.427C434.374 232.427 433.714 232.367 433.094 232.257C431.574 233.057 430.814 234.067 430.814 235.287C430.814 235.927 431.074 236.407 431.604 236.717C432.134 237.027 433.044 237.177 434.334 237.177H438.504C441.054 237.177 443.014 237.717 444.384 238.787C445.754 239.857 446.434 241.417 446.434 243.467C446.434 246.077 445.384 248.057 443.294 249.427C441.204 250.797 438.154 251.477 434.144 251.477C431.064 251.477 428.694 250.907 427.024 249.757C425.354 248.607 424.524 246.997 424.524 244.897C424.524 243.467 424.984 242.227 425.904 241.177C426.824 240.137 428.114 239.427 429.774 239.047C429.174 238.777 428.664 238.357 428.264 237.777C427.854 237.207 427.654 236.537 427.654 235.777C427.654 234.917 427.884 234.167 428.344 233.517C428.804 232.877 429.524 232.247 430.514 231.647C429.294 231.147 428.304 230.297 427.534 229.087C426.764 227.887 426.384 226.507 426.384 224.967C426.384 222.387 427.154 220.397 428.704 219.007C430.254 217.617 432.444 216.917 435.274 216.917C436.504 216.917 437.614 217.057 438.604 217.347H446.744V217.357ZM427.964 244.857C427.964 246.127 428.504 247.097 429.574 247.757C430.644 248.417 432.184 248.747 434.194 248.747C437.184 248.747 439.404 248.297 440.844 247.407C442.284 246.507 443.004 245.297 443.004 243.767C443.004 242.487 442.614 241.607 441.824 241.117C441.034 240.627 439.554 240.377 437.374 240.377H433.094C431.474 240.377 430.214 240.767 429.314 241.537C428.414 242.297 427.964 243.407 427.964 244.857ZM429.894 224.897C429.894 226.547 430.354 227.787 431.294 228.637C432.224 229.487 433.524 229.907 435.184 229.907C438.664 229.907 440.404 228.217 440.404 224.837C440.404 221.297 438.644 219.527 435.114 219.527C433.434 219.527 432.154 219.977 431.244 220.877C430.334 221.777 429.894 223.127 429.894 224.897Z" fill="#1A2441"/>
<path d="M471.454 229.107C471.454 232.947 470.484 235.947 468.554 238.097C466.624 240.257 463.944 241.327 460.544 241.327C458.434 241.327 456.574 240.837 454.934 239.847C453.294 238.857 452.044 237.437 451.154 235.597C450.264 233.747 449.824 231.587 449.824 229.107C449.824 225.267 450.784 222.277 452.704 220.137C454.624 217.997 457.284 216.927 460.694 216.927C463.984 216.927 466.604 218.027 468.544 220.217C470.484 222.407 471.454 225.367 471.454 229.107ZM453.524 229.107C453.524 232.117 454.124 234.407 455.324 235.987C456.524 237.567 458.294 238.347 460.634 238.347C462.964 238.347 464.744 237.567 465.954 235.997C467.164 234.427 467.774 232.137 467.774 229.107C467.774 226.117 467.164 223.837 465.954 222.287C464.744 220.737 462.954 219.957 460.594 219.957C458.264 219.957 456.494 220.727 455.304 222.257C454.114 223.787 453.524 226.077 453.524 229.107Z" fill="#1A2441"/>
<path d="M497.594 229.107C497.594 232.947 496.624 235.947 494.694 238.097C492.764 240.257 490.084 241.327 486.684 241.327C484.574 241.327 482.714 240.837 481.074 239.847C479.434 238.857 478.184 237.437 477.294 235.597C476.404 233.747 475.964 231.587 475.964 229.107C475.964 225.267 476.924 222.277 478.844 220.137C480.764 217.997 483.424 216.927 486.834 216.927C490.124 216.927 492.744 218.027 494.684 220.217C496.624 222.407 497.594 225.367 497.594 229.107ZM479.654 229.107C479.654 232.117 480.254 234.407 481.454 235.987C482.654 237.567 484.424 238.347 486.764 238.347C489.094 238.347 490.874 237.567 492.084 235.997C493.294 234.427 493.904 232.137 493.904 229.107C493.904 226.117 493.294 223.837 492.084 222.287C490.874 220.737 489.084 219.957 486.724 219.957C484.394 219.957 482.624 220.727 481.434 222.257C480.244 223.787 479.654 226.077 479.654 229.107Z" fill="#1A2441"/>
<path d="M519.434 237.747H519.244C517.594 240.137 515.134 241.337 511.854 241.337C508.774 241.337 506.374 240.287 504.664 238.177C502.954 236.067 502.094 233.077 502.094 229.197C502.094 225.317 502.954 222.297 504.674 220.157C506.394 218.017 508.784 216.937 511.854 216.937C515.044 216.937 517.494 218.097 519.204 220.417H519.484L519.334 218.717L519.244 217.067V207.487H522.814V240.917H519.914L519.434 237.747ZM512.304 238.347C514.734 238.347 516.504 237.687 517.604 236.357C518.704 235.037 519.244 232.897 519.244 229.947V229.197C519.244 225.857 518.684 223.477 517.574 222.057C516.464 220.637 514.694 219.917 512.254 219.917C510.164 219.917 508.564 220.727 507.454 222.357C506.344 223.987 505.784 226.277 505.784 229.247C505.784 232.257 506.334 234.527 507.434 236.057C508.544 237.587 510.164 238.347 512.304 238.347Z" fill="#1A2441"/>
<path d="M557.034 240.907V225.677C557.034 223.757 556.594 222.327 555.724 221.377C554.854 220.427 553.484 219.957 551.624 219.957C549.144 219.957 547.334 220.627 546.204 221.977C545.064 223.327 544.494 225.527 544.494 228.597V240.907H540.924V207.477H544.494V217.597C544.494 218.817 544.434 219.827 544.324 220.627H544.534C545.234 219.497 546.234 218.607 547.534 217.957C548.834 217.307 550.304 216.977 551.974 216.977C554.854 216.977 557.014 217.657 558.454 219.027C559.894 220.397 560.614 222.567 560.614 225.547V240.907H557.034Z" fill="#1A2441"/>
<path d="M577.434 241.337C573.954 241.337 571.204 240.277 569.194 238.157C567.184 236.037 566.174 233.097 566.174 229.327C566.174 225.537 567.104 222.517 568.974 220.287C570.844 218.057 573.354 216.937 576.504 216.937C579.454 216.937 581.794 217.907 583.504 219.847C585.224 221.787 586.084 224.347 586.084 227.527V229.787H569.864C569.934 232.547 570.634 234.647 571.954 236.077C573.274 237.507 575.144 238.227 577.554 238.227C580.094 238.227 582.594 237.697 585.074 236.637V239.817C583.814 240.357 582.624 240.747 581.494 240.987C580.374 241.217 579.024 241.337 577.434 241.337ZM576.464 219.917C574.574 219.917 573.064 220.537 571.944 221.767C570.824 222.997 570.154 224.707 569.954 226.877H582.264C582.264 224.627 581.764 222.907 580.764 221.707C579.764 220.517 578.324 219.917 576.464 219.917Z" fill="#1A2441"/>
<path d="M606.214 240.907L605.504 237.557H605.334C604.164 239.037 602.984 240.027 601.824 240.557C600.654 241.077 599.204 241.337 597.454 241.337C595.124 241.337 593.284 240.737 591.964 239.537C590.634 238.337 589.974 236.627 589.974 234.407C589.974 229.657 593.774 227.157 601.384 226.927L605.384 226.797V225.337C605.384 223.487 604.984 222.127 604.194 221.247C603.404 220.367 602.124 219.927 600.384 219.927C598.424 219.927 596.204 220.527 593.724 221.727L592.624 218.997C593.784 218.367 595.054 217.877 596.434 217.517C597.814 217.157 599.204 216.977 600.594 216.977C603.404 216.977 605.484 217.597 606.834 218.847C608.184 220.097 608.864 222.087 608.864 224.837V240.907H606.214ZM598.154 238.387C600.374 238.387 602.114 237.777 603.384 236.557C604.654 235.337 605.284 233.637 605.284 231.447V229.317L601.714 229.467C598.874 229.567 596.834 230.007 595.584 230.787C594.334 231.567 593.704 232.787 593.704 234.427C593.704 235.717 594.094 236.697 594.874 237.367C595.654 238.057 596.754 238.387 598.154 238.387Z" fill="#1A2441"/>
<path d="M626.504 216.927C627.544 216.927 628.484 217.017 629.314 217.187L628.824 220.497C627.854 220.287 626.994 220.177 626.244 220.177C624.334 220.177 622.714 220.947 621.354 222.497C619.994 224.047 619.324 225.967 619.324 228.277V240.907H615.754V217.357H618.694L619.104 221.717H619.274C620.144 220.187 621.204 219.007 622.434 218.177C623.674 217.347 625.024 216.927 626.504 216.927Z" fill="#1A2441"/>
<path d="M632.984 210.977C632.984 210.157 633.184 209.567 633.584 209.187C633.984 208.807 634.484 208.617 635.084 208.617C635.654 208.617 636.154 208.807 636.564 209.197C636.984 209.587 637.184 210.177 637.184 210.977C637.184 211.777 636.974 212.377 636.564 212.767C636.144 213.157 635.654 213.357 635.084 213.357C634.484 213.357 633.984 213.157 633.584 212.767C633.184 212.377 632.984 211.777 632.984 210.977ZM636.844 240.907H633.274V217.357H636.844V240.907Z" fill="#1A2441"/>
<path d="M660.084 240.907V225.677C660.084 223.757 659.644 222.327 658.774 221.377C657.904 220.427 656.534 219.957 654.674 219.957C652.214 219.957 650.404 220.627 649.264 221.957C648.114 223.287 647.544 225.487 647.544 228.557V240.907H643.974V217.357H646.874L647.454 220.577H647.624C648.354 219.417 649.374 218.517 650.694 217.877C652.014 217.237 653.484 216.917 655.094 216.917C657.934 216.917 660.064 217.597 661.494 218.967C662.924 220.337 663.644 222.527 663.644 225.527V240.887H660.084V240.907Z" fill="#1A2441"/>
<path d="M689.804 217.357V219.617L685.443 220.137C685.843 220.637 686.203 221.297 686.513 222.107C686.823 222.917 686.984 223.827 686.984 224.847C686.984 227.157 686.194 228.997 684.624 230.367C683.044 231.747 680.883 232.427 678.133 232.427C677.433 232.427 676.774 232.367 676.154 232.257C674.634 233.057 673.874 234.067 673.874 235.287C673.874 235.927 674.134 236.407 674.664 236.717C675.194 237.027 676.103 237.177 677.393 237.177H681.563C684.113 237.177 686.073 237.717 687.443 238.787C688.813 239.857 689.494 241.417 689.494 243.467C689.494 246.077 688.444 248.057 686.354 249.427C684.264 250.797 681.213 251.477 677.203 251.477C674.123 251.477 671.753 250.907 670.083 249.757C668.413 248.607 667.583 246.997 667.583 244.897C667.583 243.467 668.044 242.227 668.964 241.177C669.884 240.137 671.173 239.427 672.833 239.047C672.233 238.777 671.723 238.357 671.323 237.777C670.913 237.207 670.714 236.537 670.714 235.777C670.714 234.917 670.944 234.167 671.404 233.517C671.864 232.877 672.583 232.247 673.573 231.647C672.353 231.147 671.364 230.297 670.594 229.087C669.824 227.887 669.443 226.507 669.443 224.967C669.443 222.387 670.213 220.397 671.763 219.007C673.313 217.617 675.503 216.917 678.333 216.917C679.563 216.917 680.674 217.057 681.664 217.347H689.804V217.357ZM671.034 244.857C671.034 246.127 671.573 247.097 672.643 247.757C673.713 248.417 675.253 248.747 677.263 248.747C680.253 248.747 682.474 248.297 683.914 247.407C685.354 246.507 686.073 245.297 686.073 243.767C686.073 242.487 685.683 241.607 684.893 241.117C684.103 240.627 682.623 240.377 680.443 240.377H676.164C674.544 240.377 673.283 240.767 672.383 241.537C671.483 242.307 671.034 243.407 671.034 244.857ZM672.964 224.897C672.964 226.547 673.424 227.787 674.364 228.637C675.294 229.487 676.593 229.907 678.253 229.907C681.733 229.907 683.474 228.217 683.474 224.837C683.474 221.297 681.714 219.527 678.184 219.527C676.504 219.527 675.223 219.977 674.313 220.877C673.403 221.777 672.964 223.127 672.964 224.897Z" fill="#1A2441"/>
<path d="M689.804 175.137V127.767C689.804 111.467 685.654 98.5171 666.814 98.5171C657.264 98.5171 651.024 100.887 643.964 104.787L643.954 104.777C643.824 104.617 643.714 104.497 643.684 104.477C642.164 102.687 640.204 101.287 637.754 100.257C637.554 100.167 637.314 100.117 637.104 100.037C635.954 99.5972 634.684 99.2472 633.294 98.9772C633.184 98.9572 633.074 98.9472 632.974 98.9272C631.954 98.7472 630.954 98.5472 629.804 98.4472C628.694 98.3572 626.454 98.4072 626.454 98.4072C626.034 98.4072 625.664 98.4372 625.254 98.4472C624.164 98.4272 623.084 98.4172 621.894 98.4172C618.574 98.4172 613.724 98.6972 608.604 99.3972C608.604 99.3972 608.584 99.4172 608.574 99.4272C603.554 100.057 598.564 100.977 594.064 102.147C590.884 102.987 590.324 103.817 590.324 105.907V106.797V115.617V117.797V175.147C590.324 176.677 591.574 178.077 593.094 178.077H593.154H605.834H605.894C607.414 178.077 608.664 176.687 608.664 175.147V117.747C614.344 114.687 618.494 114.267 621.404 114.267C629.154 114.267 630.954 117.057 630.954 127.777V175.147C630.954 176.677 632.204 178.077 633.724 178.077H646.464C647.984 178.077 649.234 176.687 649.234 175.147V127.777C649.234 124.297 649.094 120.807 648.684 117.747C653.664 115.097 658.934 114.267 661.564 114.267C669.314 114.267 671.534 117.057 671.534 127.777V175.147C671.534 176.677 672.784 178.077 674.304 178.077H687.044C688.564 178.067 689.804 176.667 689.804 175.137Z" fill="#1A2441"/>
<path d="M542.804 178.717C520.974 178.717 510.094 163.497 510.094 143.667V132.437C510.094 112.607 520.974 98.4172 542.804 98.4172C564.634 98.4172 576.034 113.117 576.034 132.957V144.187C576.034 164.017 564.624 178.717 542.804 178.717ZM557.674 132.947C557.674 121.577 552.534 114.227 542.794 114.227C533.064 114.227 528.444 121.057 528.444 132.437V143.667C528.444 155.037 533.064 162.907 542.794 162.907C552.524 162.907 557.674 155.557 557.674 144.187V132.947Z" fill="#1A2441"/>
<path d="M495.074 177.337C491.904 178.167 485.714 179.127 477.314 179.117C459.424 179.097 445.934 167.977 445.934 145.377V132.477C445.934 109.867 459.424 98.7872 477.324 98.8172C485.724 98.8272 491.914 99.8072 495.084 100.647C497.424 101.207 497.974 102.037 497.974 104.257V113.267C497.974 114.657 496.874 115.347 495.494 115.347C495.354 115.347 495.224 115.347 495.084 115.347C489.054 115.027 486.164 114.697 477.224 114.677C470.754 114.667 464.114 118.077 464.114 132.497V145.397C464.114 159.817 470.864 163.577 477.324 163.587C486.274 163.597 489.574 163.327 495.084 162.637C495.224 162.637 495.354 162.637 495.494 162.637C496.874 162.637 497.974 163.337 497.974 164.717V173.737C497.964 175.957 497.414 176.787 495.074 177.337Z" fill="#1A2441"/>
<path d="M423.004 178.717C429.455 178.717 434.684 173.488 434.684 167.037C434.684 160.586 429.455 155.357 423.004 155.357C416.554 155.357 411.324 160.586 411.324 167.037C411.324 173.488 416.554 178.717 423.004 178.717Z" fill="#1A2441"/>
<path d="M413.934 98.7672C412.484 98.7772 403.404 98.4372 394.994 99.4372C386.894 100.407 379.414 102.717 379.414 102.717C377.374 103.337 376.654 104.307 376.654 106.237V175.167C376.654 176.687 377.894 178.067 379.414 178.067H392.114C393.634 178.067 394.874 176.687 394.874 175.167C394.874 175.167 395.184 118.557 395.184 118.547C395.184 117.947 395.644 117.747 395.864 117.627C399.014 116.007 402.204 115.557 405.254 115.137C408.044 114.747 413.284 114.807 414.614 114.807C416.914 114.807 416.694 112.737 416.694 111.217V103.407C416.694 101.887 416.694 98.7572 413.934 98.7672Z" fill="#1A2441"/>
<path d="M354.104 106.847C347.664 100.667 338.674 98.7872 329.624 98.7172C325.114 98.6872 313.654 99.9472 307.644 101.217C306.044 101.557 304.934 102.447 304.904 104.147C304.894 104.917 304.864 107.687 304.884 110.167C304.904 112.207 305.494 114.947 305.774 115.307C306.474 116.197 307.624 116.727 308.634 116.607C312.124 116.207 328.944 114.547 331.264 114.617C333.744 114.687 337.004 114.937 339.234 116.177C341.204 117.267 343.404 119.907 343.814 122.197C344.214 124.367 344.194 131.917 344.044 132.027C343.844 132.167 333.674 131.907 328.794 132.227C318.224 132.917 305.014 135.317 300.784 145.687C298.764 150.637 298.634 156.487 299.524 161.677C300.494 167.347 303.594 171.727 308.844 174.797C315.164 178.497 322.834 178.937 329.994 178.657C348.744 177.927 359.894 175.497 361.324 174.547C362.304 173.887 362.514 172.917 362.514 171.847V151.517V128.457L362.564 124.567C362.484 116.577 357.364 109.977 354.104 106.847ZM344.054 162.747C343.954 162.947 336.084 163.837 332.064 163.847C329.534 163.847 321.814 163.607 319.524 160.647C318.124 158.837 318.144 154.767 318.514 152.197C318.844 149.897 320.194 147.957 322.594 146.767C325.414 145.367 331.474 145.057 335.354 145.057C337.534 145.057 343.814 145.007 344.054 145.067C344.084 145.067 344.074 162.687 344.054 162.747Z" fill="#1A2441"/>
<path d="M271.464 131.987H242.344V131.437C242.344 120.517 248.524 114.427 257.044 114.427C265.564 114.427 271.464 120.647 271.464 131.437V131.987ZM289.734 141.527V133.787C289.734 113.187 278.194 98.6672 257.044 98.6672C236.024 98.6672 224.074 112.217 224.074 133.787V144.017C224.074 171.257 243.584 178.717 257.314 178.717C269.674 178.717 275.034 178.027 283.964 176.367C286.434 175.957 286.844 174.987 286.844 172.777V163.647C286.844 162.267 285.744 161.577 284.374 161.577H283.964C278.194 162.127 268.714 162.957 258.684 162.957C245.494 162.957 242.204 153.417 242.204 145.397V144.987H286.984C288.914 144.987 289.734 143.737 289.734 141.527Z" fill="#1A2441"/>
<path d="M209.134 178.067H196.224C194.684 178.067 193.414 176.687 193.414 175.167V129.747C193.344 117.707 190.924 114.217 181.674 114.277C177.094 114.307 171.964 116.227 166.324 119.037C166.094 119.157 165.634 119.357 165.634 119.957C165.634 120.117 165.634 175.157 165.634 175.157C165.634 176.677 164.374 178.057 162.824 178.057H149.914C148.374 178.057 147.104 176.677 147.104 175.157V75.7572C147.104 74.2372 148.364 72.9972 149.914 72.9972H162.824C164.364 72.9972 165.634 74.2372 165.634 75.7572V104.337C170.964 101.157 176.854 98.7172 186.824 98.7172C206.184 98.7172 211.934 112.767 211.934 129.747V175.167C211.944 176.687 210.684 178.067 209.134 178.067Z" fill="#1A2441"/>
<path d="M86.0238 213.477C79.8338 201.347 75.6638 188.207 73.4838 174.757C72.4038 168.097 72.1638 162.467 72.4738 159.017C72.8238 155.107 77.8038 154.627 79.1038 157.427C80.2538 159.907 81.1238 163.577 81.9238 166.157C88.8838 188.487 104.434 207.817 124.204 220.157C145.504 233.457 171.504 238.617 196.294 234.847C197.944 234.597 200.624 234.207 202.474 233.977C206.714 233.457 208.804 239.297 204.054 241.277C202.724 241.837 193.654 244.907 190.404 245.837C177.154 249.637 163.264 251.757 149.464 251.437C123.224 250.847 98.1638 237.287 86.0238 213.477Z" fill="#6CB0E2"/>
<path d="M54.6739 164.057C51.9839 92.1672 110.334 31.6272 185.014 28.8272C196.554 28.3972 207.804 29.3672 218.584 31.5872C222.914 32.4772 224.944 26.4272 220.944 24.5472C201.644 15.4872 179.794 10.7472 156.804 11.6072C82.3639 14.3972 24.1939 74.7472 26.8739 146.407C28.2039 182.037 44.3339 213.757 69.3739 236.307C73.4839 240.007 80.8239 238.227 75.7639 230.687C62.9139 211.567 55.5939 188.507 54.6739 164.057Z" fill="#6CB0E2"/>
<path d="M26.8738 146.417C24.4838 82.5572 70.4138 27.6772 133.124 14.5172C140.724 12.9072 148.624 11.9172 156.794 11.6172C156.994 11.6072 157.184 11.5972 157.384 11.5972C160.964 11.5572 162.144 9.64723 162.304 7.66723C162.464 5.62723 160.934 3.67722 157.834 3.11722C149.434 1.61722 135.144 -0.362775 123.974 0.0572246C51.6438 2.76722 -2.56619 55.8772 0.0938145 126.987C1.85381 174.027 30.2338 215.287 69.3838 236.327C68.4638 235.507 67.5738 234.677 66.6938 233.827C43.1938 211.457 28.1638 180.757 26.8738 146.417Z" fill="#005C9E"/>
</svg>
